<svg width="209" height="161" viewBox="0 0 209 161" fill="none" xmlns="http://www.w3.org/2000/svg">
<g clip-path="url(#clip0_361_606)">
<path d="M67.5 139C67.5 141.485 69.5147 143.5 72 143.5H136C138.485 143.5 140.5 141.485 140.5 139V122.5H67.5V139Z" stroke="#686868" stroke-width="3"/>
<circle cx="103.5" cy="133.5" r="4.5" fill="#686868"/>
<path d="M67.5 21C67.5 18.5147 69.5147 16.5 72 16.5H136C138.485 16.5 140.5 18.5147 140.5 21V37.5H67.5V21Z" stroke="#686868" stroke-width="3"/>
<rect x="91" y="24" width="26" height="3" rx="1" fill="#686868"/>
</g>
<rect x="67.5" y="16.5" width="73" height="127" rx="4.5" stroke="#686868" stroke-width="3"/>
<rect x="110" y="62" width="64" height="17" rx="8" fill="white" stroke="#686868" stroke-width="2"/>
<path d="M130.457 65.2852L129.995 69.5068L134.26 68.3145L134.539 70.3877L130.479 70.6885L133.11 74.1904L131.198 75.2217L129.308 71.376L127.61 75.2217L125.634 74.1904L128.233 70.6885L124.205 70.3877L124.517 68.3145L128.717 69.5068L128.255 65.2852H130.457ZM142.574 65.2852L142.112 69.5068L146.377 68.3145L146.656 70.3877L142.596 70.6885L145.228 74.1904L143.315 75.2217L141.425 71.376L139.728 75.2217L137.751 74.1904L140.351 70.6885L136.322 70.3877L136.634 68.3145L140.834 69.5068L140.372 65.2852H142.574ZM154.691 65.2852L154.229 69.5068L158.494 68.3145L158.773 70.3877L154.713 70.6885L157.345 74.1904L155.433 75.2217L153.542 71.376L151.845 75.2217L149.868 74.1904L152.468 70.6885L148.439 70.3877L148.751 68.3145L152.951 69.5068L152.489 65.2852H154.691Z" fill="#686868"/>
<defs>
<clipPath id="clip0_361_606">
<rect x="66" y="15" width="76" height="130" rx="6" fill="white"/>
</clipPath>
</defs>
</svg>
